<svg width="128" height="28" viewBox="0 0 128 28" fill="none" xmlns="http://www.w3.org/2000/svg">
<path d="M30.1282 4.77069V26.3386C30.1282 26.6211 29.8967 26.8566 29.5726 26.8566H26.9335C26.6557 26.8566 26.3779 26.6211 26.3779 26.3386V4.77069C26.4242 4.48814 26.6557 4.25269 26.9798 4.25269H29.6189C29.8967 4.25269 30.1282 4.48814 30.1282 4.77069Z" fill="#171717"/>
<path d="M37.0732 11.7873H34.4341C34.1563 11.7873 33.8785 11.9757 33.8785 12.2582V26.3857C33.8785 26.6211 34.11 26.8566 34.4341 26.8566H37.0732C37.351 26.8566 37.6288 26.6682 37.6288 26.3857V12.2582C37.6288 11.9757 37.3973 11.7873 37.0732 11.7873Z" fill="#171717"/>
<path d="M36.7028 6.13634H34.8508C34.3415 6.13634 33.9248 6.56017 33.9248 7.07817V8.96183C33.9248 9.47984 34.3415 9.90366 34.8508 9.90366H36.7028C37.2121 9.90366 37.6288 9.47984 37.6288 8.96183V7.07817C37.6288 6.56017 37.2121 6.13634 36.7028 6.13634Z" fill="#171717"/>
<path d="M65.7561 18.1447V26.2444C65.7561 26.574 65.5221 26.8095 65.1946 26.8095H62.7148C62.3873 26.8095 62.1533 26.574 62.1533 26.2444V18.6156C62.1533 17.3441 61.8726 16.3552 61.3579 15.743C60.8432 15.0837 60.0478 14.8012 59.0185 14.8012C57.8955 14.8012 57.0066 15.1779 56.3515 15.9314C55.6965 16.6848 55.369 17.7679 55.369 19.1807V26.2915C55.369 26.6211 55.135 26.8566 54.8075 26.8566H52.3277C52.0002 26.8566 51.7662 26.6211 51.7662 26.2915V18.6156C51.7662 17.3441 51.4855 16.3552 50.9708 15.743C50.4561 15.0837 49.6607 14.8012 48.6314 14.8012C47.5084 14.8012 46.6195 15.1779 45.9644 15.9314C45.3094 16.6848 44.9819 17.7679 44.9819 19.1807V26.2915C44.9819 26.6211 44.7479 26.8566 44.4204 26.8566H41.9406C41.6131 26.8566 41.3791 26.6211 41.3791 26.2915V12.2582C41.3791 11.9286 41.6131 11.6931 41.9406 11.6931H44.2332C44.514 11.6931 44.7947 11.9286 44.7947 12.2582V13.4355C45.3094 12.8704 45.9644 12.3995 46.6663 12.0699C47.5084 11.6931 48.3974 11.5519 49.4268 11.5519C50.5029 11.5519 51.4855 11.7873 52.3277 12.2111C52.9827 12.5408 53.4974 12.9646 53.9653 13.5297C54.1525 13.7652 54.48 13.7652 54.6671 13.5768C55.1818 13.0117 55.8368 12.5879 56.5387 12.2582C57.4744 11.8344 58.5506 11.5989 59.6735 11.5989C61.4983 11.5989 62.9955 12.164 64.0717 13.2472C65.1946 14.2832 65.7561 15.9314 65.7561 18.1447Z" fill="#171717"/>
<path d="M81.9862 15.1417C81.3358 14.0081 80.4532 13.1106 79.2917 12.4965C78.1303 11.8825 76.8296 11.5519 75.3894 11.5519C73.8564 11.5519 72.5091 11.8825 71.3477 12.4965C70.1863 13.1578 69.2572 14.0553 68.6068 15.2362C67.9564 16.417 67.6312 17.7868 67.6312 19.2983C67.6312 20.8571 67.9564 22.2269 68.6532 23.4077C69.3036 24.5886 70.2328 25.5333 71.4406 26.1473C72.602 26.8086 73.9493 27.092 75.4359 27.092C77.2477 27.092 78.7807 26.6669 80.035 25.7695C81.0106 25.0609 81.7539 24.2107 82.265 23.1716C82.265 23.1716 82.3114 23.1243 82.3114 23.0771C82.3114 23.0299 82.3579 22.9826 82.3579 22.9354C82.3579 22.6992 82.172 22.5103 81.9398 22.5103H79.0595C78.9201 22.5103 78.7807 22.6047 78.6878 22.7465C77.991 23.7384 76.9689 24.258 75.5288 24.258C74.4138 24.258 73.4382 23.9273 72.6485 23.2188C71.9052 22.5575 71.4871 21.7073 71.3477 20.6209H82.4043C82.7295 20.6209 83.0083 20.3847 83.0547 20.0541C83.1012 19.7234 83.1012 19.3456 83.1012 18.9205C82.9618 17.5979 82.6366 16.2753 81.9862 15.1417ZM71.6264 18.0702C71.3477 18.0702 71.1154 17.7868 71.1619 17.5034C71.3942 16.6532 71.8123 15.8974 72.4162 15.3779C73.206 14.7166 74.1351 14.3859 75.2036 14.3859C76.4115 14.3859 77.387 14.7166 78.2233 15.4251C78.9201 15.9919 79.2917 16.7004 79.4311 17.5979C79.4776 17.8813 79.2453 18.1175 78.9665 18.1175H71.6264V18.0702Z" fill="#171717"/>
<path d="M98.9463 26.1055L93.8525 19.5801C93.759 19.4393 93.759 19.2046 93.8525 19.0168L98.9463 12.4915C99.1799 12.2098 98.9463 11.7873 98.5724 11.7873H95.5348C95.3946 11.7873 95.2544 11.8812 95.161 11.9751L91.9364 15.7307C91.7495 16.0123 91.3757 16.0123 91.1887 15.7307L88.0109 11.9751C87.9175 11.8343 87.7773 11.7873 87.6371 11.7873H84.5528C84.1789 11.7873 83.9453 12.2098 84.1789 12.4915L89.226 19.0637C89.3194 19.2046 89.3194 19.4393 89.226 19.6271L84.1322 26.1524C83.8985 26.4341 84.1322 26.8566 84.506 26.8566H87.5436C87.6838 26.8566 87.824 26.7627 87.9175 26.6688L91.0953 22.6316C91.2822 22.3499 91.656 22.3499 91.843 22.6316L95.0675 26.6688C95.161 26.8096 95.3012 26.8566 95.4413 26.8566H98.4789C98.9463 26.8566 99.1799 26.4341 98.9463 26.1055Z" fill="#171717"/>
<path d="M14.6972 18.5685L8.40492 12.117C8.21709 11.8815 7.88839 11.7874 7.60665 11.7874C7.3249 11.7874 6.9962 11.8815 6.80837 12.117L0.516084 18.5685C-0.0474045 19.1807 -0.00044709 20.1225 0.656956 20.6405C2.67612 22.2887 5.16486 23.0893 7.60665 23.0893C10.0484 23.0893 12.5372 22.2887 14.6033 20.6876C15.2607 20.1696 15.3077 19.1807 14.6972 18.5685Z" fill="#0AA461"/>
<path d="M105.616 9.47791V0.884521H106.871V4.07767H106.946C107.019 3.9434 107.124 3.78815 107.261 3.61191C107.398 3.43568 107.588 3.28183 107.831 3.15036C108.075 3.01608 108.396 2.94895 108.796 2.94895C109.317 2.94895 109.781 3.08042 110.19 3.34337C110.598 3.60632 110.918 3.98536 111.15 4.48048C111.385 4.97561 111.503 5.57144 111.503 6.26798C111.503 6.96451 111.387 7.56174 111.155 8.05966C110.922 8.55479 110.604 8.93663 110.198 9.20517C109.792 9.47092 109.329 9.60379 108.809 9.60379C108.417 9.60379 108.097 9.53805 107.848 9.40658C107.602 9.2751 107.409 9.12125 107.269 8.94502C107.129 8.76879 107.022 8.61214 106.946 8.47507H106.841V9.47791H105.616ZM106.845 6.25539C106.845 6.70856 106.911 7.10578 107.043 7.44705C107.174 7.78832 107.364 8.05547 107.613 8.24848C107.862 8.4387 108.167 8.53381 108.528 8.53381C108.903 8.53381 109.216 8.43451 109.468 8.2359C109.72 8.03449 109.91 7.76175 110.038 7.41768C110.17 7.07361 110.236 6.68618 110.236 6.25539C110.236 5.83019 110.171 5.44836 110.043 5.10988C109.917 4.77141 109.727 4.50426 109.472 4.30845C109.22 4.11264 108.906 4.01473 108.528 4.01473C108.164 4.01473 107.857 4.10844 107.605 4.29586C107.356 4.48328 107.167 4.74483 107.038 5.08051C106.91 5.41619 106.845 5.80782 106.845 6.25539Z" fill="#171717"/>
<path d="M115.099 9.60798C114.464 9.60798 113.917 9.47231 113.458 9.20097C113.002 8.92684 112.65 8.5422 112.401 8.04708C112.154 7.54915 112.031 6.96591 112.031 6.29735C112.031 5.63718 112.154 5.05534 112.401 4.55182C112.65 4.0483 112.996 3.65527 113.441 3.37274C113.889 3.09021 114.412 2.94895 115.011 2.94895C115.374 2.94895 115.727 3.00909 116.068 3.12938C116.409 3.24966 116.715 3.43848 116.987 3.69583C117.258 3.95319 117.472 4.28747 117.629 4.69868C117.785 5.10709 117.864 5.60361 117.864 6.18825V6.63303H112.74V5.69313H116.634C116.634 5.36304 116.567 5.07072 116.433 4.81616C116.299 4.55881 116.11 4.356 115.866 4.20775C115.626 4.05949 115.343 3.98536 115.019 3.98536C114.666 3.98536 114.359 4.07208 114.096 4.24551C113.836 4.41615 113.634 4.63993 113.492 4.91687C113.352 5.19101 113.282 5.48892 113.282 5.81061V6.54491C113.282 6.9757 113.357 7.34215 113.508 7.64426C113.662 7.94637 113.876 8.17715 114.15 8.3366C114.424 8.49325 114.745 8.57158 115.111 8.57158C115.349 8.57158 115.566 8.53801 115.762 8.47087C115.957 8.40094 116.127 8.29744 116.269 8.16037C116.412 8.0233 116.521 7.85406 116.597 7.65265L117.784 7.86665C117.689 8.21631 117.518 8.52262 117.272 8.78557C117.029 9.04572 116.722 9.24853 116.353 9.39399C115.987 9.53665 115.569 9.60798 115.099 9.60798Z" fill="#171717"/>
<path d="M121.674 3.03287V4.03991H118.153V3.03287H121.674ZM119.097 1.48874H120.352V7.58552C120.352 7.82888 120.388 8.01211 120.461 8.13519C120.534 8.25548 120.627 8.338 120.742 8.38276C120.86 8.42472 120.987 8.4457 121.124 8.4457C121.225 8.4457 121.313 8.4387 121.388 8.42472C121.464 8.41073 121.522 8.39954 121.564 8.39115L121.791 9.42756C121.718 9.45553 121.615 9.4835 121.481 9.51148C121.346 9.54225 121.178 9.55903 120.977 9.56183C120.647 9.56742 120.339 9.50868 120.054 9.3856C119.769 9.26251 119.538 9.0723 119.362 8.81494C119.185 8.55759 119.097 8.2345 119.097 7.84567V1.48874Z" fill="#171717"/>
<path d="M124.346 9.62057C123.938 9.62057 123.569 9.54504 123.238 9.39399C122.908 9.24014 122.647 9.01775 122.454 8.72683C122.264 8.4359 122.168 8.07925 122.168 7.65685C122.168 7.2932 122.238 6.99388 122.378 6.75891C122.518 6.52393 122.707 6.33791 122.945 6.20084C123.182 6.06377 123.448 5.96027 123.742 5.89034C124.036 5.8204 124.335 5.76726 124.64 5.73089C125.026 5.68613 125.339 5.64977 125.58 5.62179C125.82 5.59102 125.995 5.54207 126.104 5.47493C126.213 5.4078 126.268 5.2987 126.268 5.14765V5.11828C126.268 4.75183 126.164 4.4679 125.957 4.26649C125.753 4.06508 125.448 3.96438 125.043 3.96438C124.62 3.96438 124.287 4.05809 124.044 4.24551C123.803 4.43013 123.637 4.63574 123.545 4.86232L122.366 4.59378C122.506 4.20215 122.71 3.88605 122.978 3.64548C123.25 3.40212 123.562 3.22588 123.914 3.11679C124.266 3.0049 124.637 2.94895 125.026 2.94895C125.283 2.94895 125.556 2.97972 125.844 3.04126C126.135 3.1 126.406 3.2091 126.658 3.36855C126.913 3.528 127.121 3.75598 127.283 4.05249C127.446 4.34621 127.527 4.72805 127.527 5.198V9.47791H126.302V8.59675H126.251C126.17 8.759 126.048 8.91844 125.886 9.07509C125.724 9.23174 125.515 9.36182 125.261 9.46532C125.006 9.56882 124.701 9.62057 124.346 9.62057ZM124.619 8.61354C124.966 8.61354 125.262 8.545 125.508 8.40793C125.757 8.27086 125.946 8.09183 126.075 7.87084C126.206 7.64706 126.272 7.40789 126.272 7.15333V6.32252C126.227 6.36728 126.141 6.40924 126.012 6.4484C125.886 6.48477 125.742 6.51694 125.58 6.54491C125.418 6.57009 125.26 6.59387 125.106 6.61624C124.952 6.63583 124.823 6.65261 124.72 6.6666C124.476 6.69737 124.254 6.74912 124.052 6.82185C123.854 6.89458 123.694 6.99948 123.574 7.13655C123.457 7.27082 123.398 7.44985 123.398 7.67363C123.398 7.98414 123.513 8.21911 123.742 8.37856C123.971 8.53521 124.264 8.61354 124.619 8.61354Z" fill="#171717"/>
</svg>
